<svg xmlns="http://www.w3.org/2000/svg" style="display: none;">
    <symbol id="logo" viewBox="0 0 277.4 110.3"><path d="M12.1 10s-2.5 4.4 1.9 5.6c5.6 1.4 11.6 2.3 17.2 4.5 1.6.6-.1 2.1-1.2 2-9.7-2.7-18.9-6-30-5.5 2.5 3 6.2 7.1 7 11.2 3.9-3.1 9.9-4.8 14.6-2.3l-5.6 2C7.2 30.8 1.2 40.1.3 49.1c-.8 10 4.5 18.7 13.3 23.2 10.5 5.6 27.4 3.2 32.2 14.4 1.1 2.7 1.1 8-1.2 11.2-4 5.1-9.7 6.6-16.4 5.8 0 0-7.9-1.1-12.5-4.6C8.9 94 7 87.2 6.1 79.6h-4c1 9.6 0 19.3-1.3 28.4l3.4.4s.9-2.4 1.9-3.8c.8-.8 2.1-1 3.1-.3 11.8 8.1 31 8.1 42.1.6 7.6-5.6 10.4-14.1 8.1-23C54.3 64 33.9 66 20.6 59.8c-4.4-1.7-8.9-6-8.9-11.2-.1-5.4 2.1-9.7 6.5-12.8 1.8-1.1 3.7-1.3 3.7-1.3-3.6 3.7-5.8 8-5.2 13.4.5 4.4 4.3 8.6 8.5 9.9 4.1 1.1 7.8-.5 10.9-2.9l-.4-1.9c-1.8.5-4.1.5-5.9 0-3.7-1.3-5.1-5-4.7-8.7.3-1.6 1.6-2.7 3.4-2.2 9.1 3.8 7.4 15.9 16 20.1 2.9 1 5.5.1 7.3-1.2 4.5-3.2 6.1-7.3 7.3-12.4-2.4 2.7-4.6 5.7-8.2 6.3-1.8.4-2.7 0-3.7-1.5-3.5-5.6-4.6-14.9-12.9-15.8-1.6 0-2-.1-5 .3 2.1-1.7 4.6-3.4 7.4-3.5 4.1-.1 8.4 2.7 10 5.5.8 1.6.6 4.1-.6 5.6l1.9 1.4c3.1-4 9.8-9.1 9.7-12.5-.5-6.6-10.5-10.6-16.4-12.9 0 0 1-2.6.5-4.5-1.1-2.6-3.6-3-5.9-3.7-4.3-1.2-11.2-1.8-14.4-4.6-3.2-2.8-1.7-5.8-.9-9C12.5 8.9 12.1 10 12.1 10zM38 23.9c1 .5 2 1.5 2.5 2.5l-9-1.5c1.8-1.3 4.4-2.3 6.5-1zM89.2 42.9c-.1-.1-.4-.3-.9-.6s-1.1-.6-1.8-.9c-.7-.3-1.5-.6-2.3-.8-.8-.2-1.7-.4-2.5-.4-1.1 0-2 .2-2.6.6-.6.4-.9 1-.9 1.7 0 .5.1.9.4 1.2.3.3.6.6 1.1.9.5.2 1.1.5 1.8.7.7.2 1.6.5 2.5.7 1.4.4 2.6.8 3.7 1.2 1.1.4 2 1 2.8 1.6.8.6 1.4 1.4 1.8 2.4.4.9.6 2 .6 3.3 0 1.6-.3 2.9-.9 4-.6 1.1-1.4 2-2.4 2.7-1 .7-2.1 1.2-3.4 1.5-1.3.3-2.6.5-3.9.5-1 0-2.1-.1-3.2-.2-1.1-.2-2.1-.4-3.2-.7-1-.3-2-.7-3-1.1-1-.4-1.9-.9-2.7-1.5l2.9-5.7c.1.1.5.4 1.1.8.6.4 1.3.7 2.1 1.1.9.4 1.8.7 2.9 1 1.1.3 2.1.4 3.2.4 2.3 0 3.5-.7 3.5-2.1 0-.5-.2-1-.5-1.3-.3-.3-.8-.7-1.4-.9-.6-.3-1.3-.5-2.1-.8-.8-.2-1.7-.5-2.7-.8-1.3-.4-2.4-.8-3.4-1.3s-1.7-1-2.4-1.6c-.6-.6-1.1-1.3-1.4-2.1-.3-.8-.5-1.7-.5-2.8 0-1.5.3-2.8.8-3.9.6-1.1 1.3-2.1 2.3-2.9 1-.8 2.1-1.4 3.3-1.8 1.3-.4 2.6-.6 4-.6 1 0 2 .1 2.9.3 1 .2 1.9.4 2.7.7.9.3 1.7.6 2.4 1 .8.4 1.5.7 2.1 1.1l-2.8 5.4zM101.9 63.2c-2.1 0-3.7-.7-4.8-2-1.1-1.3-1.7-3.3-1.7-5.9V42h6.4v12c0 1.3.2 2.2.8 2.9.5.7 1.2 1 2.1 1 .8 0 1.7-.2 2.5-.7.8-.4 1.5-1.2 2.1-2.3V42h6.3v13.7c0 .6.1 1.1.4 1.3.2.2.7.4 1.3.5v5.4c-.7.1-1.2.2-1.7.3-.5 0-.9.1-1.3.1-2.2 0-3.5-.9-3.8-2.7l-.1-1.3c-1 1.4-2.1 2.4-3.6 3-1.6.6-3.1.9-4.9.9zM140.4 62.8H134V51.1c0-1.4-.3-2.4-.8-3-.5-.6-1.2-.9-2-.9-.5 0-.9.1-1.4.3-.5.2-.9.4-1.3.8-.4.3-.8.7-1.1 1.2-.3.5-.6.9-.8 1.5v12h-6.4V42h5.7v3.5c.8-1.2 1.9-2.2 3.3-2.9 1.4-.7 3-1 4.8-1 1.4 0 2.4.2 3.3.7.8.5 1.5 1.1 1.9 1.9.5.8.8 1.6.9 2.6.1.9.2 1.8.2 2.7v13.3zM152.8 63.2c-1.4 0-2.7-.3-4-.8-1.2-.5-2.2-1.3-3.1-2.3-.9-1-1.6-2.1-2-3.4-.5-1.3-.7-2.7-.7-4.3 0-1.5.2-2.9.7-4.3.5-1.3 1.1-2.5 1.9-3.4.8-1 1.8-1.7 2.9-2.3 1.1-.6 2.4-.8 3.7-.8 1.4 0 2.7.3 3.9 1 1.2.7 2.1 1.6 2.7 2.8V33.8h6.4v21.8c0 .6.1 1.1.4 1.3.2.2.7.4 1.3.5v5.4c-.7.1-1.2.2-1.7.3-.5 0-.9.1-1.3.1-2.2-.1-3.5-.9-3.8-2.7l-.1-1.1c-.8 1.3-1.8 2.3-3 2.9-1.4.6-2.7.9-4.2.9zm1.8-5.4c.9 0 1.7-.3 2.5-.8s1.4-1.2 1.9-2.1v-4.4c-.4-1.1-1-1.9-1.9-2.6-.9-.7-1.8-1-2.8-1-.7 0-1.3.1-1.9.5-.6.3-1.1.7-1.5 1.2-.4.5-.7 1.1-1 1.7-.2.7-.3 1.4-.3 2.1 0 1.6.5 2.8 1.4 3.9.9 1 2.1 1.5 3.6 1.5zM178.7 63.2c-.9 0-1.8-.1-2.7-.2-.9-.1-1.9-.3-2.8-.5-.9-.2-1.8-.5-2.7-.8-.9-.3-1.6-.7-2.2-1.1l2.5-4.3c1.4.8 2.7 1.4 4 1.8 1.3.4 2.5.6 3.7.6.9 0 1.6-.1 2.1-.4.5-.3.7-.7.7-1.3 0-.6-.3-1-1-1.3-.7-.3-1.8-.7-3.4-1.1-1.4-.4-2.6-.7-3.6-1.1-1-.4-1.8-.8-2.4-1.2-.6-.5-1-1-1.3-1.6-.3-.6-.4-1.3-.4-2.1 0-1.1.2-2 .7-2.9.4-.9 1-1.6 1.8-2.2.8-.6 1.7-1.1 2.7-1.4 1.1-.3 2.2-.5 3.4-.5 1.5 0 2.9.2 4.5.7 1.5.4 3 1 4.5 1.8l-2.5 4c-1.3-.7-2.5-1.2-3.5-1.6-1-.3-2-.5-3-.5-.8 0-1.4.1-2 .4-.5.3-.8.7-.8 1.3 0 .3.1.5.2.7.1.2.4.4.7.6.3.2.7.3 1.2.5.5.1 1.1.3 1.9.5 1.5.4 2.8.8 3.9 1.2 1.1.4 1.9.8 2.6 1.3.7.5 1.1 1 1.4 1.7.3.6.4 1.4.4 2.3 0 1-.2 2-.6 2.8-.4.8-1 1.5-1.8 2.1-.8.6-1.7 1-2.8 1.3-.8.3-2.1.5-3.4.5zM195.1 62.8L187.7 42h6.5l4.6 15.8 4.6-15.8h5.9L202 62.8h-6.9zM216.6 63.2c-1 0-2-.2-2.9-.5-.9-.3-1.7-.8-2.3-1.4-.6-.6-1.1-1.3-1.5-2.1-.4-.8-.6-1.7-.6-2.6 0-1 .2-2 .7-2.8.4-.8 1.1-1.6 1.8-2.2.8-.6 1.7-1.1 2.8-1.4 1.1-.3 2.3-.5 3.6-.5.9 0 1.7.1 2.5.2s1.5.4 2.1.7v-1c0-2.4-1.4-3.6-4.2-3.6-1.1 0-2.2.2-3.3.6-1 .4-2.1 1-3.3 1.7l-1.9-4c1.4-.9 2.8-1.6 4.3-2 1.5-.5 3.1-.7 4.7-.7 3.2 0 5.6.7 7.3 2.2 1.7 1.5 2.6 3.7 2.6 6.5v5.4c0 .6.1 1.1.4 1.3.2.2.7.4 1.3.5v5.4c-.6.1-1.2.2-1.7.3-.5 0-1 .1-1.4.1-1.2 0-2-.3-2.7-.7-.6-.4-1-1.1-1.2-1.9l-.1-1c-.9 1.2-2 2.1-3.3 2.7-.9.5-2.2.8-3.7.8zm1.9-4.6c.7 0 1.4-.1 2-.4.6-.2 1.2-.6 1.6-1 .6-.5.9-1 .9-1.5v-2c-.5-.2-1.2-.4-1.8-.5-.6-.1-1.3-.2-1.8-.2-1.2 0-2.1.3-2.9.8-.8.5-1.1 1.2-1.1 2.1 0 .8.3 1.4.9 1.9.6.6 1.3.8 2.2.8zM233.7 33.8h6.4V55c0 1.6.7 2.4 2.1 2.4.3 0 .6-.1 1-.2s.7-.2 1-.4l.8 5.2c-.8.4-1.7.7-2.7.9-1 .2-2 .3-2.9.3-1.8 0-3.2-.5-4.2-1.4-1-1-1.5-2.3-1.5-4.1V33.8zM246.7 33.8h6.4V55c0 1.6.7 2.4 2.1 2.4.3 0 .6-.1 1-.2s.7-.2 1.1-.4l.8 5.1c-.8.4-1.7.7-2.7.9-1 .2-2 .3-2.9.3-1.8 0-3.2-.5-4.2-1.4-1-1-1.5-2.3-1.5-4.1V33.8zM268.6 63.2c-.9 0-1.8-.1-2.7-.2-.9-.1-1.9-.3-2.8-.5-.9-.2-1.8-.5-2.7-.8-.8-.3-1.6-.7-2.2-1.1l2.5-4.3c1.4.8 2.7 1.4 4 1.8 1.3.4 2.5.6 3.7.6.9 0 1.6-.1 2.1-.4.5-.3.7-.7.7-1.3 0-.6-.3-1-1-1.3-.7-.3-1.8-.7-3.4-1.1-1.4-.4-2.6-.7-3.6-1.1-1-.4-1.8-.8-2.4-1.2-.6-.5-1-1-1.3-1.6-.3-.6-.4-1.3-.4-2.1 0-1.1.2-2 .7-2.9.4-.9 1-1.6 1.8-2.2.8-.6 1.7-1.1 2.7-1.4 1-.3 2.2-.5 3.4-.5 1.5 0 2.9.2 4.5.7 1.5.4 3 1 4.5 1.8l-2.5 4c-1.3-.7-2.5-1.2-3.5-1.6-1-.3-2-.5-3-.5-.8 0-1.4.1-2 .4-.5.3-.8.7-.8 1.3 0 .3.1.5.2.7.1.2.3.4.7.6.3.2.7.3 1.2.5.5.1 1.1.3 1.9.5 1.5.4 2.8.8 3.9 1.2 1.1.4 1.9.8 2.6 1.3.7.5 1.1 1 1.4 1.7.3.6.4 1.4.4 2.3 0 1-.2 2-.6 2.8-.4.8-1 1.5-1.8 2.1-.8.6-1.7 1-2.8 1.3-.9.3-2.1.5-3.4.5zM85.8 98.5l-5.4-8.4-2.2 2.3v6.1h-6.3v-29h6.3v16.8l7.1-8.7h6.8l-7.5 9 8.1 11.9h-6.9z"/><path d="M102.8 98.9c-1.8 0-3.4-.3-4.8-.9-1.4-.6-2.6-1.4-3.5-2.4-1-1-1.7-2.1-2.2-3.5-.5-1.3-.7-2.7-.7-4.1 0-1.4.2-2.8.7-4.1.5-1.3 1.2-2.5 2.2-3.5 1-1 2.1-1.8 3.5-2.4 1.4-.6 3-.9 4.8-.9 1.8 0 3.3.3 4.7.9 1.4.6 2.5 1.4 3.5 2.4s1.7 2.1 2.2 3.5c.5 1.3.8 2.7.8 4.1 0 1.4-.2 2.8-.7 4.1-.5 1.3-1.2 2.5-2.2 3.5-1 1-2.1 1.8-3.5 2.4-1.4.6-3 .9-4.8.9zm-4.6-10.8c0 1.6.4 3 1.3 3.9.9 1 2 1.5 3.3 1.5.7 0 1.3-.1 1.8-.4.6-.3 1-.6 1.5-1.1.4-.5.7-1.1 1-1.7.2-.7.4-1.4.4-2.2 0-1.6-.4-3-1.3-4s-2-1.5-3.3-1.5c-.7 0-1.3.1-1.9.4-.6.3-1.1.6-1.5 1.1-.4.5-.7 1-1 1.7-.2.8-.3 1.5-.3 2.3zM149.6 98.5h-6.4V86.8c0-1.4-.2-2.4-.7-3-.5-.6-1.1-.9-2-.9-.8 0-1.7.3-2.5 1s-1.4 1.6-1.8 2.7v11.9h-6.4V86.8c0-1.4-.2-2.4-.7-3-.5-.6-1.1-.9-2-.9-.9 0-1.7.3-2.5 1s-1.4 1.6-1.8 2.7v11.9h-6.4V77.7h5.7v3.5c.8-1.3 1.8-2.2 3.1-2.9 1.3-.7 2.9-1 4.6-1 .8 0 1.6.1 2.3.3.7.2 1.2.5 1.7.9s.9.8 1.2 1.3c.3.5.5 1 .7 1.6.8-1.3 1.8-2.3 3.1-3 1.3-.7 2.8-1.1 4.4-1.1 1.3 0 2.4.2 3.2.7.8.5 1.4 1.1 1.9 1.9.5.8.8 1.6.9 2.6.1.9.2 1.8.2 2.7v13.3zM186.3 98.5h-6.4V86.8c0-1.4-.2-2.4-.7-3-.5-.6-1.1-.9-2-.9-.9 0-1.7.3-2.5 1s-1.4 1.6-1.8 2.7v11.9h-6.4V86.8c0-1.4-.2-2.4-.7-3-.5-.6-1.1-.9-2-.9-.8 0-1.7.3-2.5 1s-1.4 1.6-1.8 2.7v11.9h-6.3V77.7h5.7v3.5c.8-1.3 1.8-2.2 3.1-2.9 1.3-.7 2.9-1 4.6-1 .8 0 1.6.1 2.3.3.7.2 1.2.5 1.7.9s.8.8 1.2 1.3c.3.5.5 1 .7 1.6.8-1.3 1.8-2.3 3.1-3 1.3-.7 2.8-1.1 4.4-1.1 1.3 0 2.4.2 3.2.7.8.5 1.4 1.1 1.9 1.9.5.8.8 1.6.9 2.6.1.9.2 1.8.2 2.7v13.3zM196.4 98.9c-2.1 0-3.7-.7-4.8-2-1.1-1.3-1.7-3.3-1.7-5.9V77.7h6.3v11.9c0 1.3.3 2.2.8 2.9.5.7 1.2 1 2.1 1 .8 0 1.7-.2 2.5-.7.8-.4 1.5-1.2 2.1-2.3V77.7h6.4v13.7c0 .6.1 1.1.4 1.3.2.3.7.4 1.3.5v5.4c-.7.1-1.2.2-1.7.3-.5 0-.9.1-1.3.1-2.2 0-3.5-.9-3.9-2.7l-.1-1.3c-1 1.4-2.1 2.4-3.6 3-1.5.6-3.1.9-4.8.9zM234.9 98.5h-6.4V86.8c0-1.4-.3-2.4-.8-3-.5-.6-1.2-.9-2-.9-.5 0-.9.1-1.4.3-.5.2-.9.4-1.3.8-.4.3-.8.7-1.1 1.2-.3.5-.6.9-.8 1.5v11.9h-6.4V77.7h5.7v3.5c.8-1.2 1.9-2.2 3.3-2.9 1.4-.7 3-1 4.8-1 1.4 0 2.4.2 3.3.7.8.5 1.5 1.1 1.9 1.9.5.8.7 1.6.9 2.6.1.9.2 1.8.2 2.7v13.3z"/></symbol>
</svg>